<mxfile host="app.diagrams.net" agent="Mozilla/5.0 (Windows NT 10.0; Win64; x64) AppleWebKit/537.36 (KHTML, like Gecko) Chrome/131.0.0.0 Safari/537.36 Edg/131.0.0.0" version="25.0.3">
  <diagram name="Page-1" id="2YBvvXClWsGukQMizWep">
    <mxGraphModel dx="1737" dy="1025" grid="1" gridSize="10" guides="1" tooltips="1" connect="1" arrows="1" fold="1" page="1" pageScale="1" pageWidth="850" pageHeight="1100" math="0" shadow="0">
      <root>
        <mxCell id="0" />
        <mxCell id="1" parent="0" />
        <mxCell id="CvwsdBbYsGwyX3Y100Nz-1" value="буудал&amp;nbsp;" style="rounded=0;whiteSpace=wrap;html=1;" vertex="1" parent="1">
          <mxGeometry x="320" y="50" width="120" height="60" as="geometry" />
        </mxCell>
        <mxCell id="CvwsdBbYsGwyX3Y100Nz-25" value="" style="endArrow=none;dashed=1;html=1;rounded=0;fontSize=12;startSize=8;endSize=8;curved=1;" edge="1" parent="1">
          <mxGeometry width="50" height="50" relative="1" as="geometry">
            <mxPoint x="265" y="160" as="sourcePoint" />
            <mxPoint x="495" y="160" as="targetPoint" />
            <Array as="points">
              <mxPoint x="405" y="160" />
            </Array>
          </mxGeometry>
        </mxCell>
        <mxCell id="CvwsdBbYsGwyX3Y100Nz-26" value="" style="endArrow=none;html=1;rounded=0;fontSize=12;startSize=8;endSize=8;curved=1;" edge="1" parent="1">
          <mxGeometry width="50" height="50" relative="1" as="geometry">
            <mxPoint x="264.58" y="220" as="sourcePoint" />
            <mxPoint x="264.58" y="160" as="targetPoint" />
            <Array as="points">
              <mxPoint x="264.58" y="190" />
            </Array>
          </mxGeometry>
        </mxCell>
        <mxCell id="CvwsdBbYsGwyX3Y100Nz-27" value="" style="endArrow=none;html=1;rounded=0;fontSize=12;startSize=8;endSize=8;curved=1;" edge="1" parent="1">
          <mxGeometry width="50" height="50" relative="1" as="geometry">
            <mxPoint x="490" y="220" as="sourcePoint" />
            <mxPoint x="490" y="160" as="targetPoint" />
          </mxGeometry>
        </mxCell>
        <mxCell id="CvwsdBbYsGwyX3Y100Nz-28" value="буудлын нэр" style="ellipse;whiteSpace=wrap;html=1;" vertex="1" parent="1">
          <mxGeometry x="220" y="230" width="90" height="50" as="geometry" />
        </mxCell>
        <mxCell id="CvwsdBbYsGwyX3Y100Nz-29" value="байршил" style="ellipse;whiteSpace=wrap;html=1;" vertex="1" parent="1">
          <mxGeometry x="450" y="230" width="90" height="50" as="geometry" />
        </mxCell>
        <mxCell id="CvwsdBbYsGwyX3Y100Nz-30" value="" style="endArrow=none;html=1;rounded=0;fontSize=12;startSize=8;endSize=8;curved=1;" edge="1" parent="1">
          <mxGeometry width="50" height="50" relative="1" as="geometry">
            <mxPoint x="264.55" y="320" as="sourcePoint" />
            <mxPoint x="264.55" y="280" as="targetPoint" />
          </mxGeometry>
        </mxCell>
        <mxCell id="CvwsdBbYsGwyX3Y100Nz-31" value="" style="endArrow=none;html=1;rounded=0;fontSize=12;startSize=8;endSize=8;curved=1;" edge="1" parent="1">
          <mxGeometry width="50" height="50" relative="1" as="geometry">
            <mxPoint x="349.58" y="370" as="sourcePoint" />
            <mxPoint x="349.58" y="330" as="targetPoint" />
          </mxGeometry>
        </mxCell>
        <mxCell id="CvwsdBbYsGwyX3Y100Nz-32" value="" style="endArrow=none;dashed=1;html=1;rounded=0;fontSize=12;startSize=8;endSize=8;curved=1;" edge="1" parent="1">
          <mxGeometry width="50" height="50" relative="1" as="geometry">
            <mxPoint x="180" y="330" as="sourcePoint" />
            <mxPoint x="350" y="330" as="targetPoint" />
          </mxGeometry>
        </mxCell>
        <mxCell id="CvwsdBbYsGwyX3Y100Nz-33" value="" style="endArrow=none;html=1;rounded=0;fontSize=12;startSize=8;endSize=8;curved=1;" edge="1" parent="1">
          <mxGeometry width="50" height="50" relative="1" as="geometry">
            <mxPoint x="180" y="370" as="sourcePoint" />
            <mxPoint x="180" y="330" as="targetPoint" />
          </mxGeometry>
        </mxCell>
        <mxCell id="CvwsdBbYsGwyX3Y100Nz-38" value="Агуулдаг" style="rhombus;whiteSpace=wrap;html=1;" vertex="1" parent="1">
          <mxGeometry x="130" y="380" width="90" height="40" as="geometry" />
        </mxCell>
        <mxCell id="CvwsdBbYsGwyX3Y100Nz-39" value="" style="endArrow=none;html=1;rounded=0;fontSize=12;startSize=8;endSize=8;curved=1;" edge="1" parent="1">
          <mxGeometry width="50" height="50" relative="1" as="geometry">
            <mxPoint x="175" y="460" as="sourcePoint" />
            <mxPoint x="174.58" y="430" as="targetPoint" />
          </mxGeometry>
        </mxCell>
        <mxCell id="CvwsdBbYsGwyX3Y100Nz-40" value="өрөө&amp;nbsp;" style="rounded=0;whiteSpace=wrap;html=1;" vertex="1" parent="1">
          <mxGeometry x="137.5" y="460" width="75" height="30" as="geometry" />
        </mxCell>
        <mxCell id="CvwsdBbYsGwyX3Y100Nz-42" value="" style="endArrow=none;html=1;rounded=0;fontSize=12;startSize=8;endSize=8;curved=1;" edge="1" parent="1">
          <mxGeometry width="50" height="50" relative="1" as="geometry">
            <mxPoint x="174.58" y="520" as="sourcePoint" />
            <mxPoint x="174.58" y="490" as="targetPoint" />
          </mxGeometry>
        </mxCell>
        <mxCell id="CvwsdBbYsGwyX3Y100Nz-43" value="өрөөний дугаар" style="ellipse;whiteSpace=wrap;html=1;" vertex="1" parent="1">
          <mxGeometry x="137.5" y="520" width="75" height="40" as="geometry" />
        </mxCell>
        <mxCell id="CvwsdBbYsGwyX3Y100Nz-44" value="өрөөний төрөл" style="ellipse;whiteSpace=wrap;html=1;" vertex="1" parent="1">
          <mxGeometry x="320" y="460" width="60" height="30" as="geometry" />
        </mxCell>
        <mxCell id="CvwsdBbYsGwyX3Y100Nz-45" value="" style="endArrow=none;html=1;rounded=0;fontSize=12;startSize=8;endSize=8;curved=1;" edge="1" parent="1">
          <mxGeometry width="50" height="50" relative="1" as="geometry">
            <mxPoint x="349.58" y="460" as="sourcePoint" />
            <mxPoint x="349.58" y="430" as="targetPoint" />
            <Array as="points">
              <mxPoint x="350" y="460" />
            </Array>
          </mxGeometry>
        </mxCell>
        <mxCell id="CvwsdBbYsGwyX3Y100Nz-46" value="" style="endArrow=none;dashed=1;html=1;rounded=0;fontSize=12;startSize=8;endSize=8;curved=1;" edge="1" parent="1">
          <mxGeometry width="50" height="50" relative="1" as="geometry">
            <mxPoint x="80" y="570" as="sourcePoint" />
            <mxPoint x="270" y="570" as="targetPoint" />
          </mxGeometry>
        </mxCell>
        <mxCell id="CvwsdBbYsGwyX3Y100Nz-47" value="" style="endArrow=none;html=1;rounded=0;fontSize=12;startSize=8;endSize=8;curved=1;" edge="1" parent="1">
          <mxGeometry width="50" height="50" relative="1" as="geometry">
            <mxPoint x="79.58" y="600" as="sourcePoint" />
            <mxPoint x="79.58" y="570" as="targetPoint" />
          </mxGeometry>
        </mxCell>
        <mxCell id="CvwsdBbYsGwyX3Y100Nz-48" value="" style="endArrow=none;html=1;rounded=0;fontSize=12;startSize=8;endSize=8;curved=1;" edge="1" parent="1">
          <mxGeometry width="50" height="50" relative="1" as="geometry">
            <mxPoint x="270" y="600" as="sourcePoint" />
            <mxPoint x="270" y="570" as="targetPoint" />
            <Array as="points">
              <mxPoint x="270" y="590" />
            </Array>
          </mxGeometry>
        </mxCell>
        <mxCell id="CvwsdBbYsGwyX3Y100Nz-49" value="захиалга" style="rhombus;whiteSpace=wrap;html=1;" vertex="1" parent="1">
          <mxGeometry x="40" y="600" width="80" height="40" as="geometry" />
        </mxCell>
        <mxCell id="CvwsdBbYsGwyX3Y100Nz-50" value="" style="endArrow=classic;html=1;rounded=0;fontSize=12;startSize=8;endSize=8;curved=1;" edge="1" parent="1">
          <mxGeometry width="50" height="50" relative="1" as="geometry">
            <mxPoint x="380" y="110" as="sourcePoint" />
            <mxPoint x="380" y="160" as="targetPoint" />
          </mxGeometry>
        </mxCell>
        <mxCell id="CvwsdBbYsGwyX3Y100Nz-51" value="" style="endArrow=none;html=1;rounded=0;fontSize=12;startSize=8;endSize=8;curved=1;" edge="1" parent="1">
          <mxGeometry width="50" height="50" relative="1" as="geometry">
            <mxPoint x="80" y="660" as="sourcePoint" />
            <mxPoint x="80" y="640" as="targetPoint" />
          </mxGeometry>
        </mxCell>
        <mxCell id="CvwsdBbYsGwyX3Y100Nz-53" value="зочин" style="rounded=0;whiteSpace=wrap;html=1;" vertex="1" parent="1">
          <mxGeometry x="45" y="660" width="70" height="30" as="geometry" />
        </mxCell>
        <mxCell id="CvwsdBbYsGwyX3Y100Nz-54" value="захиалга" style="rounded=0;whiteSpace=wrap;html=1;" vertex="1" parent="1">
          <mxGeometry x="240" y="660" width="70" height="30" as="geometry" />
        </mxCell>
        <mxCell id="CvwsdBbYsGwyX3Y100Nz-55" value="" style="endArrow=none;html=1;rounded=0;fontSize=12;startSize=8;endSize=8;curved=1;" edge="1" parent="1">
          <mxGeometry width="50" height="50" relative="1" as="geometry">
            <mxPoint x="274.58" y="650" as="sourcePoint" />
            <mxPoint x="274.58" y="630" as="targetPoint" />
          </mxGeometry>
        </mxCell>
        <mxCell id="CvwsdBbYsGwyX3Y100Nz-56" value="зочин_нэр" style="ellipse;whiteSpace=wrap;html=1;" vertex="1" parent="1">
          <mxGeometry x="40" y="720" width="80" height="40" as="geometry" />
        </mxCell>
        <mxCell id="CvwsdBbYsGwyX3Y100Nz-57" value="" style="endArrow=none;html=1;rounded=0;fontSize=12;startSize=8;endSize=8;curved=1;" edge="1" parent="1">
          <mxGeometry width="50" height="50" relative="1" as="geometry">
            <mxPoint x="79.58000000000001" y="720" as="sourcePoint" />
            <mxPoint x="79.58000000000001" y="690" as="targetPoint" />
          </mxGeometry>
        </mxCell>
        <mxCell id="CvwsdBbYsGwyX3Y100Nz-58" value="" style="endArrow=none;html=1;rounded=0;fontSize=12;startSize=8;endSize=8;curved=1;entryX=0.5;entryY=1;entryDx=0;entryDy=0;" edge="1" parent="1" target="CvwsdBbYsGwyX3Y100Nz-54">
          <mxGeometry width="50" height="50" relative="1" as="geometry">
            <mxPoint x="275" y="720" as="sourcePoint" />
            <mxPoint x="280" y="700" as="targetPoint" />
          </mxGeometry>
        </mxCell>
        <mxCell id="CvwsdBbYsGwyX3Y100Nz-59" value="захиалгийн дугаар" style="ellipse;whiteSpace=wrap;html=1;" vertex="1" parent="1">
          <mxGeometry x="235" y="720" width="80" height="40" as="geometry" />
        </mxCell>
        <mxCell id="CvwsdBbYsGwyX3Y100Nz-60" value="" style="endArrow=none;html=1;rounded=0;fontSize=12;startSize=8;endSize=8;curved=1;" edge="1" parent="1">
          <mxGeometry width="50" height="50" relative="1" as="geometry">
            <mxPoint x="79.68" y="780" as="sourcePoint" />
            <mxPoint x="79.68" y="760" as="targetPoint" />
          </mxGeometry>
        </mxCell>
        <mxCell id="CvwsdBbYsGwyX3Y100Nz-61" value="" style="endArrow=none;html=1;rounded=0;fontSize=12;startSize=8;endSize=8;curved=1;" edge="1" parent="1">
          <mxGeometry width="50" height="50" relative="1" as="geometry">
            <mxPoint x="274.68" y="780" as="sourcePoint" />
            <mxPoint x="274.68" y="760" as="targetPoint" />
          </mxGeometry>
        </mxCell>
        <mxCell id="CvwsdBbYsGwyX3Y100Nz-62" value="холбоо_барих" style="ellipse;whiteSpace=wrap;html=1;" vertex="1" parent="1">
          <mxGeometry x="40" y="780" width="80" height="40" as="geometry" />
        </mxCell>
        <mxCell id="CvwsdBbYsGwyX3Y100Nz-63" value="эхлэх огноо,&lt;div&gt;дуусах огноо&lt;/div&gt;" style="ellipse;whiteSpace=wrap;html=1;" vertex="1" parent="1">
          <mxGeometry x="235" y="780" width="85" height="50" as="geometry" />
        </mxCell>
      </root>
    </mxGraphModel>
  </diagram>
</mxfile>
